<?xml version="1.0" encoding="UTF-8" standalone="no"?>
<svg width="119px" height="19px" viewBox="0 0 119 19" version="1.1" xmlns="http://www.w3.org/2000/svg" xmlns:xlink="http://www.w3.org/1999/xlink">
    <!-- Generator: Sketch 41.2 (35397) - http://www.bohemiancoding.com/sketch -->
    <title>TW Logo</title>
    <desc>Created with Sketch.</desc>
    <defs>
        <polygon id="path-1" points="3.64010182 3.74960682 3.64010182 0.399129545 0.305116 0.399129545 0.305116 3.74960682 3.64010182 3.74960682"></polygon>
        <polygon id="path-3" points="10.6616211 0.103636364 8.65454546e-05 0.103636364 8.65454546e-05 14.9925114 10.6616211 14.9925114 10.6616211 0.103636364"></polygon>
        <polygon id="path-5" points="0.143925091 14.6818182 10.3731651 14.6818182 10.3731651 0.0252613636 0.143925091 0.0252613636 0.143925091 14.6818182"></polygon>
    </defs>
    <g id="Page-1" stroke="none" stroke-width="1" fill="none" fill-rule="evenodd">
        <g id="TW-Logo">
            <g id="Group-3" transform="translate(115.105455, 4.214675)">
                <mask id="mask-2" fill="white">
                    <use xlink:href="#path-1"></use>
                </mask>
                <g id="Clip-2"></g>
                <path d="M2.16238145,1.94762955 C2.36489782,1.95194773 2.50510145,1.90487955 2.50510145,1.68206136 C2.50510145,1.43678864 2.24849418,1.45276591 2.07021055,1.45276591 L1.66690873,1.45276591 L1.66690873,1.94762955 L2.16238145,1.94762955 Z M2.79762509,2.98831136 L2.36489782,2.98831136 L1.96246145,2.22226591 L1.66690873,2.22226591 L1.66690873,2.98831136 L1.28524327,2.98831136 L1.28524327,1.17294773 L2.15762145,1.17294773 C2.62972691,1.17294773 2.85604327,1.30076591 2.85604327,1.72869773 C2.85604327,2.06206136 2.68122145,2.19894773 2.36489782,2.22226591 L2.79762509,2.98831136 Z M3.20049418,2.06853864 C3.20049418,1.32494773 2.685116,0.794243182 1.97371236,0.794243182 C1.24586509,0.794243182 0.742603273,1.32494773 0.742603273,2.06853864 C0.742603273,2.82637955 1.24586509,3.35276591 1.97371236,3.35276591 C2.685116,3.35276591 3.20049418,2.82637955 3.20049418,2.06853864 L3.20049418,2.06853864 Z M0.305116,2.06853864 C0.305116,1.14876591 1.04507964,0.399129545 1.97371236,0.399129545 C2.88806509,0.399129545 3.64014509,1.14876591 3.64014509,2.06853864 C3.64014509,3.00169773 2.88806509,3.74960682 1.97371236,3.74960682 C1.04507964,3.74960682 0.305116,3.00169773 0.305116,2.06853864 L0.305116,2.06853864 Z" id="Fill-1" fill="#020302" mask="url(#mask-2)"></path>
            </g>
            <g id="Group-6" transform="translate(0.000000, 0.328311)">
                <mask id="mask-4" fill="white">
                    <use xlink:href="#path-3"></use>
                </mask>
                <g id="Clip-5"></g>
                <polygon id="Fill-4" fill="#020302" mask="url(#mask-4)" points="10.6616211 2.62782955 6.81640655 2.62782955 6.81640655 14.9925114 3.84746473 14.9925114 3.84746473 2.62782955 8.65454546e-05 2.62782955 8.65454546e-05 0.103420455 10.6616211 0.103420455"></polygon>
            </g>
            <path d="M14.6051945,5.71403409 C15.5000745,4.96569318 16.6030964,4.37323864 17.7874709,4.37323864 C18.94718,4.37323864 20.5837545,5.08228409 20.5837545,7.72328409 L20.5837545,15.3176705 L17.7645364,15.3176705 L17.7645364,8.87105682 C17.7645364,8.00957955 17.8233873,6.652375 16.6030964,6.652375 C15.78654,6.652375 15.1404782,7.24396591 14.6051945,7.81828409 L14.6051945,15.3176705 L11.7851109,15.3176705 L11.7851109,0.433329545 L14.6051945,0.433329545 L14.6051945,5.71403409" id="Fill-7" fill="#020302"></path>
            <path d="M28.2190109,9.96118182 C28.2190109,8.62297727 27.9533164,6.46086364 26.4305491,6.46086364 C24.9064836,6.46086364 24.6403564,8.62297727 24.6403564,9.96118182 C24.6403564,11.3006818 24.9064836,13.4615 26.4305491,13.4615 C27.9533164,13.4615 28.2190109,11.3006818 28.2190109,9.96118182 M21.7462764,9.96118182 C21.7462764,7.11118182 23.3079891,4.37345455 26.4305491,4.37345455 C29.5531091,4.37345455 31.1143891,7.11118182 31.1143891,9.96118182 C31.1143891,12.7939091 29.5340691,15.5484773 26.4305491,15.5484773 C23.3265964,15.5484773 21.7462764,12.7939091 21.7462764,9.96118182" id="Fill-9" fill="#020302"></path>
            <path d="M38.3308087,14.2093659 C37.4359287,14.9559795 36.331176,15.5484341 35.1502633,15.5484341 C33.9896887,15.5484341 32.3496524,14.8393886 32.3496524,12.2018432 L32.3496524,4.602275 L35.1706015,4.602275 L35.1706015,11.052775 C35.1706015,11.9116614 35.1134815,13.2714568 36.331176,13.2714568 C37.149896,13.2714568 37.7985542,12.6781386 38.3308087,12.1059795 L38.3308087,4.602275 L41.1508924,4.602275 L41.1508924,15.3200023 L38.3308087,15.3200023 L38.3308087,14.2093659" id="Fill-11" fill="#020302"></path>
            <g id="Group-15" transform="translate(41.974545, 4.214675)">
                <mask id="mask-6" fill="white">
                    <use xlink:href="#path-5"></use>
                </mask>
                <g id="Clip-14"></g>
                <path d="M4.83036145,5.78657955 C6.00954327,5.78657955 6.35399418,4.81067045 6.35399418,3.79503409 C6.35399418,2.81826136 5.89789964,1.99607955 4.83036145,1.99607955 C3.64944873,1.99607955 3.28595782,2.98969318 3.28595782,4.00489773 C3.28595782,4.98167045 3.744216,5.78657955 4.83036145,5.78657955 L4.83036145,5.78657955 Z M2.88784873,11.1238523 C2.62215418,11.2970114 2.44863055,11.4477159 2.44863055,11.7931705 C2.44863055,12.7885114 4.44739782,12.8437841 5.11466327,12.8437841 C5.59152873,12.8437841 8.06845964,12.7885114 8.06845964,11.9283295 C8.06845964,11.3717159 7.68636145,11.4295795 6.00954327,11.3337159 L2.88784873,11.1238523 Z M3.78272873,7.58294318 C3.45991418,7.58294318 2.98175055,7.75610227 2.98175055,8.253125 C2.98175055,9.64919318 10.3731651,7.21935227 10.3731651,11.4079886 C10.3731651,12.998375 9.303896,14.6820341 5.07831418,14.6820341 C1.40272873,14.6820341 0.143925091,13.3826932 0.143925091,11.9853295 C0.143925091,11.1622841 0.661034182,10.7399659 1.307096,10.3582386 C0.850568727,10.0132159 0.468470545,9.60989773 0.468470545,8.99973864 C0.468470545,7.94782955 1.04010327,7.39294318 1.86055418,6.85705682 C1.08077964,6.09101136 0.527754182,5.132375 0.527754182,3.91119318 C0.527754182,1.53748864 2.525656,0.158693182 4.83036145,0.158693182 C5.762456,0.158693182 6.65993236,0.427715909 7.45917964,0.904011364 C8.02994691,0.370715909 8.54272873,0.0252613636 9.380056,0.0252613636 C9.64834691,0.0252613636 9.93264873,0.0464204545 10.198776,0.0999659091 L10.198776,2.08978409 C9.91533964,1.97621591 9.60810327,1.86394318 9.303896,1.86394318 C9.00141964,1.86394318 8.81015418,1.959375 8.54272873,2.08978409 C8.846936,2.667125 9.09575418,3.29671591 9.113496,3.91119318 C9.113496,6.28403409 7.13420145,7.659375 4.83036145,7.659375 L3.78272873,7.58294318 L3.78272873,7.58294318 Z" id="Fill-13" fill="#020302" mask="url(#mask-6)"></path>
            </g>
            <path d="M56.2125276,5.71403409 C57.1061095,4.96569318 58.2104295,4.37323864 59.3887458,4.37323864 C60.5519167,4.37323864 62.1902222,5.08228409 62.1902222,7.72328409 L62.1902222,15.3176705 L59.3697058,15.3176705 L59.3697058,8.87105682 C59.3697058,8.00957955 59.4307204,6.652375 58.2104295,6.652375 C57.3917095,6.652375 56.7439167,7.24396591 56.2125276,7.81828409 L56.2125276,15.3176705 L53.3920113,15.3176705 L53.3920113,0.433329545 L56.2125276,0.433329545 L56.2125276,5.71403409" id="Fill-16" fill="#020302"></path>
            <path d="M67.3123716,4.60223182 L69.499808,4.60223182 L69.499808,6.95650455 L67.3123716,6.95650455 L67.3123716,12.4112318 C67.3123716,12.9289818 67.4664225,13.4631409 68.3799098,13.4631409 C68.8537462,13.4631409 69.1596844,13.2714136 69.499808,13.0628455 L69.499808,15.2249591 C68.9121644,15.3946636 68.3015862,15.5483909 67.691008,15.5483909 C65.9414916,15.5483909 64.4957498,14.5534818 64.4957498,12.2195045 L64.4957498,6.95650455 L63.1811244,6.95650455 L63.1811244,4.60223182 L64.4957498,4.60223182 L64.4957498,1.92539091 L67.3123716,1.92539091 L67.3123716,4.60223182" id="Fill-18" fill="#020302"></path>
            <polygon id="Fill-20" fill="#020302" points="81.2329484 15.3199159 79.7088829 15.3199159 77.1943047 3.14912045 77.1575229 3.14912045 74.509232 15.3199159 72.986032 15.3199159 69.8829447 0.434279545 71.367632 0.434279545 73.8056175 12.4500523 73.8423993 12.4500523 76.5088647 0.434279545 77.9749447 0.434279545 80.5098611 12.4500523 80.5457775 12.4500523 83.1551229 0.434279545 84.619472 0.434279545"></polygon>
            <path d="M90.9054847,10.0391682 C90.9054847,8.24021364 90.4679975,5.71407727 88.1801684,5.71407727 C85.8966665,5.71407727 85.4591793,8.24021364 85.4591793,10.0391682 C85.4591793,11.8372591 85.8966665,14.3638273 88.1801684,14.3638273 C90.4679975,14.3638273 90.9054847,11.8372591 90.9054847,10.0391682 M83.9740593,10.0391682 C83.9740593,6.07637273 85.8391138,4.45187273 88.1801684,4.45187273 C90.5216556,4.45187273 92.3880084,6.07637273 92.3880084,10.0391682 C92.3880084,13.9976455 90.5216556,15.6230091 88.1801684,15.6230091 C85.8391138,15.6230091 83.9740593,13.9976455 83.9740593,10.0391682" id="Fill-22" fill="#020302"></path>
            <path d="M95.0379436,7.03310909 L95.0773218,7.03310909 C95.6641,5.77047273 96.4265655,4.60240455 97.9878455,4.60240455 L98.5599109,4.60240455 L98.5599109,5.96263182 C96.6173982,5.69404091 95.60698,7.79958636 95.0379436,9.33081364 L95.0379436,15.3205636 L93.5510927,15.3205636 L93.5510927,4.75613182 L95.0379436,4.75613182 L95.0379436,7.03310909" id="Fill-24" fill="#020302"></path>
            <polygon id="Fill-26" fill="#020302" points="101.245936 9.656275 105.149568 4.75772955 106.80475 4.75772955 103.908507 8.37291136 107.243103 15.3200023 105.64331 15.3200023 102.957372 9.57984318 101.245936 11.7030932 101.245936 15.3200023 99.7590847 15.3200023 99.7590847 0.433502273 101.245936 0.433502273"></polygon>
            <path d="M113.677541,7.10988636 C113.089032,6.23113636 112.380225,5.71425 111.280665,5.71425 C110.308327,5.71425 109.393541,6.21084091 109.393541,7.28261364 C109.393541,9.86618182 114.936777,8.73697727 114.936777,12.2951591 C114.936777,14.3635682 113.467236,15.6249091 111.488374,15.6249091 C109.792083,15.6249091 108.423799,14.877 107.565701,13.4053636 L108.749643,12.6604773 C109.317814,13.7534091 110.233032,14.3635682 111.488374,14.3635682 C112.573654,14.3635682 113.546425,13.7698182 113.546425,12.5620227 C113.546425,9.90245455 108.004919,11.1676818 108.004919,7.37847727 C108.004919,5.56009091 109.486577,4.45161364 111.221814,4.45161364 C112.687461,4.45161364 113.908617,5.06306818 114.723876,6.28684091 L113.677541,7.10988636" id="Fill-28" fill="#020302"></path>
        </g>
    </g>
</svg>